<svg width="48" height="48" viewBox="0 0 48 48" fill="none" xmlns="http://www.w3.org/2000/svg">
<g clip-path="url(#clip0)">
<path d="M48.015 2.25071C48.015 2.85659 47.7743 3.43765 47.3459 3.86607C46.9175 4.29449 46.3364 4.53518 45.7305 4.53518C45.1247 4.53518 44.5436 4.29449 44.1152 3.86607C43.6868 3.43765 43.4461 2.85659 43.4461 2.25071C43.4461 1.64483 43.6868 1.06377 44.1152 0.635352C44.5436 0.206931 45.1247 -0.0337524 45.7305 -0.0337524C46.3364 -0.0337524 46.9175 0.206931 47.3459 0.635352C47.7743 1.06377 48.015 1.64483 48.015 2.25071ZM44.0012 2.25071C43.9837 2.69498 44.136 3.12925 44.4273 3.46515C44.7186 3.80105 45.127 4.01333 45.5692 4.05878C45.8073 4.07091 46.0454 4.03484 46.2692 3.95273C46.493 3.87061 46.698 3.74414 46.8717 3.58091C47.0455 3.41767 47.1845 3.22102 47.2804 3.00276C47.3763 2.7845 47.4271 2.54912 47.4298 2.31073C47.4489 2.07667 47.4197 1.84119 47.3442 1.61883C47.2687 1.39647 47.1484 1.19195 46.9908 1.01791C46.8331 0.843864 46.6414 0.703987 46.4276 0.606917C46.2138 0.509847 45.9823 0.457645 45.7475 0.453535C45.5127 0.449425 45.2796 0.493494 45.0625 0.58302C44.8454 0.672546 44.6489 0.805629 44.4853 0.974049C44.3216 1.14247 44.1943 1.34265 44.111 1.56223C44.0277 1.78181 43.9904 2.01613 44.0012 2.25071ZM45.3667 3.44358H44.8565V1.19288C45.1385 1.14099 45.4251 1.11836 45.7118 1.12536C45.9725 1.10745 46.2329 1.16473 46.462 1.29041C46.5319 1.35229 46.5876 1.4286 46.6252 1.51409C46.6627 1.59958 46.6813 1.6922 46.6796 1.78557C46.6717 1.91242 46.6216 2.033 46.5373 2.12815C46.4531 2.2233 46.3394 2.28756 46.2144 2.31073C46.3264 2.35715 46.4235 2.43351 46.4949 2.53144C46.5664 2.62937 46.6095 2.74509 46.6196 2.8659C46.6428 3.06376 46.6986 3.25641 46.7846 3.43608H46.2294C46.1456 3.25962 46.0851 3.073 46.0494 2.88091C46.0494 2.63333 45.8768 2.5208 45.5917 2.5208H45.3442L45.3667 3.44358ZM45.3667 2.15318H45.6142C45.8993 2.15318 46.1319 2.05565 46.1319 1.82308C46.1319 1.59051 45.9969 1.50048 45.6668 1.50048C45.5721 1.48929 45.4764 1.48929 45.3817 1.50048L45.3667 2.15318Z" fill="#1DE7FF"/>
<path d="M18.2907 18.2832H9.14536V27.4286H18.2907V18.2832Z" fill="#00ACFF"/>
<path d="M32.005 18.2832H22.8596V27.4286H32.005V18.2832Z" fill="#1DE7FF"/>
<path d="M32.005 27.4286V27.7587C31.9855 29.2391 31.674 30.7011 31.0884 32.061C30.5028 33.4208 29.6546 34.6517 28.5925 35.6832C27.5304 36.7147 26.2751 37.5264 24.8987 38.0719C23.5223 38.6174 22.0518 38.886 20.5714 38.8622C19.0906 38.892 17.6185 38.6274 16.2407 38.0838C14.8629 37.5402 13.6067 36.7284 12.5452 35.6954C11.4836 34.6625 10.6378 33.429 10.0567 32.0666C9.47567 30.7041 9.17099 29.2398 9.16036 27.7587V27.4136H0V27.7587C0.0455889 33.1716 2.23761 38.3451 6.09467 42.1431C9.95173 45.9411 15.1585 48.053 20.5714 48.015C25.985 48.055 31.1929 45.9437 35.0504 42.1453C38.9079 38.3469 41.0992 33.1722 41.1429 27.7587V27.4661L32.005 27.4286Z" fill="#00ACFF"/>
<path d="M22.8596 0V9.14536H32.005V18.2832H41.1429V0H22.8596Z" fill="#1DE7FF"/>
</g>
<defs>
<clipPath id="clip0">
<rect width="48" height="48" fill="white"/>
</clipPath>
</defs>
</svg>
